# Alias OBJ Model File
# Exported from SketchUp, (c) 2000-2012 Trimble Navigation Limited
# File units = meters

mtllib teeth.mtl

g Mesh1 dientes1 Model

usemtl FrontColor
v 5.85915 6.27552 1.43824
vt 63.748 -96.0819
vn 0.196373 0.96683 -0.163333
v 5.82966 6.04115 -8.88178e-16
vt 111.063 -128.557
v 5.01804 6.27802 8.88178e-16
vt 132.898 -95.7351
f 1/1/1 2/2/1 3/3/1

vt 199.555 190.13
vn 0.923728 -0.381453 0.0349359
vt 143.004 199.889
v 5.27934 4.15548 0.318559
vt 186.201 111.614
f 2/4/2 1/5/2 4/6/2

vt -132.165 176.499
vn -0.76504 -0.0388524 0.642809
vt -114.817 92.8838
vt -63.0139 176.4
f 3/7/3 4/8/3 1/9/3

vt -96.2685 200.304
vn -0.031228 -0.153749 -0.987616
vt -69.8411 125.172
vt -57.9934 209.742
f 2/10/4 4/11/4 3/12/4

vt 212.397 86.6356
vn 0.196373 0.96683 0.163333
v 5.85915 6.27552 -1.43824
vt 259.712 119.11
vt 190.561 119.457
f 2/13/5 5/14/5 3/15/5

vt 250.501 203.931
vn 0.923728 -0.381453 -0.0349359
vt 193.95 194.173
v 5.27934 4.15548 -0.318559
vt 207.304 115.656
f 5/16/6 2/17/6 6/18/6

vt 54.9297 64.6972
vn -0.031228 -0.153749 0.987616
vt 81.3571 139.829
vt 43.082 149.267
f 6/19/7 2/20/7 3/21/7

vt -207.571 100.719
vn -0.76504 -0.0388524 -0.642809
vt -190.223 184.334
vt -259.374 184.235
f 6/22/8 3/23/8 5/24/8

g Mesh2 dientes1 Model

v 5.25979 1.51354 2.84953
vt 103.396 -5.44702
vn 0.627191 0.0102646 0.778798
v 5.46447 3.09012 2.5919
vt 117.391 56.626
v 4.34114 1.80588 3.90869
vt 43.2437 6.06308
f 7/25/9 8/26/9 9/27/9

vt 84.7104 3.96434
vn 0.983067 -0.183242 0.000876876
v 5.23142 1.28812 1.44751
vt 139.907 -5.01711
vt 94.8604 66.7805
f 7/28/10 10/29/10 8/30/10

vt -8.20804 -44.1101
vn -0.088819 -0.98301 0.160634
vt -26.7193 -150.068
vt 4.89132 -103.937
f 9/31/11 10/32/11 7/33/11

vt -46.6627 3.81431
vn -0.751513 0.447497 -0.484743
vt -117.436 59.0009
vt -151.899 -18.4351
f 9/34/12 8/35/12 10/36/12

g Mesh3 dientes1 Model

vt 135.831 205.844
vn 0.818464 -0.572702 -0.0461402
v 5.82966 6.04115 3.59534
vt 51.0652 195.163
v 5.08096 4.60507 2.33759
vt 102.188 129.714
f 1/37/13 11/38/13 12/39/13

vt 77.3062 2.72215
vn 0.321745 0.940588 0.108513
vt 159.434 26.2669
v 5.55796 6.27641 2.71368
vt 107.247 26.3569
f 11/40/14 1/41/14 13/42/14

vt -115.446 116.488
vn -0.860008 0.418398 -0.292112
vt -107.337 187.128
vt -159.525 187.09
f 12/43/15 13/44/15 1/45/15

vt -52.2404 200.592
vn -0.858396 0.251385 0.447171
vt -74.7921 133.16
vt -15.2949 191.1
f 13/46/16 12/47/16 11/48/16

g Mesh4 dientes1 Model

v 5.01804 6.27802 5
vt -13.6177 -15.6823
vn 0.143043 0.988555 -0.0479397
v 5.83801 6.10753 5
vt -24.0374 -53.5496
vt 29.3278 -68.294
f 14/49/17 15/50/17 11/51/17

v 5.67602 4.82053 5
vt 81.6262 124.58
vn 0 0 1
vt 89.2709 175.249
vt 50.574 181.961
f 16/52/18 15/53/18 14/54/18

vt -1.9911e-13 135.363
vn 0.984037 -0.177964 -2.87729e-15
vt 55.3015 183.963
vt -2.17758e-13 186.606
f 16/55/19 11/56/19 15/57/19

vt -26.0634 146.84
vn -0.717884 -0.465675 -0.517484
vt -93.1949 136.56
vt -42.0662 83.5881
f 14/58/20 11/59/20 16/60/20

g Mesh5 dientes1 Model

v 5.27775 1.6562 3.73683
vt -67.6115 -22.9527
vn -0.0726351 0.534324 -0.842153
v 3.00514 2.35225 4.4601
vt 41.9984 9.45177
v 5.53464 3.69727 5
vt -74.5567 72.0694
f 17/61/21 18/62/21 19/63/21

v 5.29479 1.7916 5
vt 28.0144 -54.1054
vn -0.184247 -0.976897 0.108287
vt -38.6407 36.2932
vt -16.9923 -75.9375
f 20/64/22 18/65/22 17/66/22

vt 73.6255 80.7222
vn -0.157159 0.0284223 0.987164
vt -47.617 27.7474
vt 62.5067 5.66586
f 19/67/23 18/68/23 20/69/23

vt -4.59814e-13 90.6399
vn 0.984037 -0.177964 -7.23612e-15
vt -3.90373e-13 14.7644
vt 49.7311 9.37334
f 19/70/24 20/71/24 17/72/24

g Mesh6 dientes1 Model

v 5.27775 1.6562 -8.88178e-16
vt -51.347 -47.3032
vn 0.0468774 0.236449 -0.970513
v 3.94639 2.03546 -1.77636e-14
vt 11.3784 -31.9364
v 5.74545 3.29804 0.432467
vt -74.3666 19.2208
f 21/73/25 22/74/25 23/75/25

vt -178.515 98.0785
vn -0.188288 -0.94972 -0.25016
vt -138.716 54.7361
vt -131.865 142.737
f 21/76/26 10/77/26 22/78/26

vt 193.797 22.4173
vn 0.928889 -0.366888 -0.050577
vt 175.786 90.4686
vt 136.966 7.16096
f 21/79/27 23/80/27 10/81/27

vt -20.4053 156.269
vn -0.383439 0.524729 0.760022
vt -101.867 98.5342
vt -20.4835 64.3601
f 23/82/28 22/83/28 10/84/28

v 5.23142 1.28812 -1.44751
vt -125.014 -220.754
vn -0.188288 -0.94972 0.25016
vt -85.2154 -177.411
vt -131.865 -132.753
f 24/85/29 21/86/29 22/87/29

v 5.74545 3.29804 -0.432467
vt 217.509 84.8829
vn 0.928889 -0.366888 0.050577
vt 199.499 16.8316
vt 256.329 1.5753
f 25/88/30 21/89/30 24/90/30

vt 11.3784 60.9535
vn 0.0468774 0.236449 0.970513
vt 74.1037 45.5866
vt 97.1234 112.111
f 22/91/31 21/92/31 25/93/31

vt -101.867 -72.8228
vn -0.383439 0.524729 -0.760022
vt -183.328 -15.0883
vt -183.25 -106.997
f 22/94/32 25/95/32 24/96/32

g Mesh7 dientes1 Model

v 1.42373 3.19321 3.88545
vt 126.419 60.7843
vn 0.344016 0.328443 -0.879647
v 2.56611 4.06128 4.85151
vt 61.4613 96.8607
vt 49.2422 25.8346
f 26/97/33 27/98/33 18/99/33

v 1.64508 2.87638 5.11618
vt -43.1348 -33.1176
vn -0.588366 0.733264 0.340808
vt -33.6053 30.7826
vt -91.3071 -16.0315
f 28/100/34 27/101/34 26/102/34

vt -103.592 44.1653
vn 0.289444 -0.110907 0.950748
vt -34.4413 23.4064
vt -59.1877 91.0942
f 28/103/35 18/104/35 27/105/35

vt 8.05087 140.219
vn -0.306105 -0.938048 -0.162377
vt -1.46198 56.0329
vt 48.1329 108.503
f 26/106/36 18/107/36 28/108/36

g Mesh8 dientes1 Model

vt 123.15 67.406
vn 0.457661 0.370078 -0.808448
v 0.37889 3.89097 3.35497
vt 175.679 96.7817
v 1.07229 5.64272 4.72087
vt 118.406 170.53
f 26/109/37 29/110/37 30/111/37

v -0.0419866 3.85261 4.51459
vt 68.0966 196.516
vn -0.34918 -0.912691 -0.212291
vt 18.3953 199.819
vt 14.717 139.747
f 31/112/38 29/113/38 26/114/38

vt 41.1545 49.7412
vn -0.682903 0.649347 -0.334652
vt 3.76074 -35.82
vt 53.5364 -37.6938
f 30/115/39 29/116/39 31/117/39

vt -129.086 138.735
vn 0.192915 -0.280877 0.940155
vt -178.21 65.3524
vt -105.125 38.3214
f 30/118/40 31/119/40 26/120/40

g Mesh9 dientes1 Model

v 4.93709 6.38723 4.97458
vt 46.581 178.424
vn -0.054029 -0.266641 0.96228
v 3.76138 6.82108 4.99995
vt -8.71119 196.145
v 4.35873 4.84762 4.50131
vt 18.0971 115.535
f 32/121/41 33/122/41 34/123/41

vt 0.809676 68.2784
vn 0.248265 0.968297 -0.0276499
vt -3.3289 10.3633
v 5.04595 6.32719 4.27659
vt 23.558 2.34873
f 33/124/42 32/125/42 35/126/42

vt 11.5336 186.585
vn 0.825325 -0.515982 0.229349
vt 23.521 118.595
vt 39.464 183.934
f 32/127/43 34/128/43 35/129/43

vt -58.9671 182.795
vn -0.343227 0.0870262 -0.935212
vt -25.7181 124.333
vt 7.99082 202.31
f 35/130/44 34/131/44 33/132/44

g Mesh10 dientes1 Model

v 0.824957 7.14767 4.27659
vt -86.7586 178.723
vn 0.164592 0.964559 0.206242
v 0.796982 7.00374 4.98177
vt -106.904 158.753
v 1.9719 6.71721 4.97458
vt -66.6417 118.994
f 36/133/45 37/134/45 38/135/45

v 0.585789 5.91726 4.84246
vt -6.20248 127.393
vn -0.963139 0.269004 -6.34629e-15
vt -0.717834 171.314
vt -28.4808 177.132
f 39/136/46 37/137/46 36/138/46

vt -158.688 166.122
vn -0.0165858 -0.122603 0.992317
vt -93.1827 197.855
vt -148.613 209.222
f 39/139/47 38/140/47 37/141/47

vt 148.655 183.335
vn 0.241565 -0.460338 -0.854245
vt 88.5705 164.308
vt 152.192 128.949
f 36/142/48 38/143/48 39/144/48

g Mesh11 dientes1 Model

v 2.75481 6.77113 4.74092
vt 51.7572 188.776
vn -0.208357 0.254282 -0.944419
v 2.79804 5.29847 4.33071
vt 45.6559 128.865
vt 89.8287 186.582
f 40/145/49 41/146/49 38/147/49

vt 58.3506 134.028
vn 0.160607 0.271134 -0.949048
vt 57.1392 194.237
vt 8.55689 196.279
f 41/148/50 40/149/50 33/150/50

vt -54.7364 -63.3722
vn -0.0406828 0.998573 0.0346004
vt -5.05375 5.04758
vt -40.8591 -27.8522
f 38/151/51 33/152/51 40/153/51

vt -8.73033 185.607
vn 0.00747839 -0.408062 0.912923
vt -93.1671 181.127
vt -53.9325 119.946
f 33/154/52 38/155/52 41/156/52

g Mesh12 dientes1 Model

v 5.82966 6.04115 -3.59534
vt 338.399 183.963
vn 0.984037 -0.177964 2.87729e-15
v 5.67602 4.82053 -5
vt 393.701 135.363
v 5.83801 6.10753 -5
vt 393.701 186.606
f 42/157/53 43/158/53 44/159/53

vt -244.198 51.1992
vn -0.717884 -0.465675 0.517484
v 5.01804 6.27802 -5
vt -311.33 61.4786
vt -295.327 -1.77307
f 42/160/54 45/161/54 43/162/54

vt 403.197 50.7811
vn 0.143043 0.988555 0.0479397
vt 392.778 88.6483
vt 349.832 36.0367
f 44/163/55 45/164/55 42/165/55

vt -89.2709 175.249
vn 0 0 -1
vt -81.6262 124.58
vt -50.574 181.961
f 44/166/56 43/167/56 45/168/56

g Mesh13 dientes1 Model

vt 219.551 -71.8356
vn 0.321745 0.940588 -0.108513
vt 301.679 -95.3804
v 5.55796 6.27641 -2.71368
vt 271.738 -71.7456
f 5/169/57 42/170/57 46/171/57

vt 342.201 185.846
vn 0.818464 -0.572702 0.0461402
vt 257.435 196.527
v 5.08096 4.60507 -2.33759
vt 291.078 120.398
f 42/172/58 5/173/58 47/174/58

vt -271.45 226.17
vn -0.860008 0.418398 0.292112
vt -263.341 155.53
vt -219.263 226.132
f 46/175/59 47/176/59 5/177/59

vt -286.285 98.85
vn -0.858396 0.251385 -0.447171
vt -308.836 166.283
vt -345.782 156.791
f 47/178/60 46/179/60 42/180/60

g Mesh14 dientes1 Model

vt 253.794 -4.9721
vn 0.983067 -0.183242 -0.000876876
v 5.25979 1.51354 -2.84953
vt 308.99 4.00936
v 5.46447 3.09012 -2.5919
vt 298.84 66.8255
f 24/181/61 48/182/61 49/183/61

vt -190.786 171.966
vn -0.088819 -0.98301 -0.160634
v 4.34114 1.80588 -3.90869
vt -209.297 277.924
vt -222.396 218.098
f 24/184/62 50/185/62 48/186/62

vt -229.258 133.769
vn -0.751513 0.447497 0.484743
vt -300.031 78.5824
vt -194.795 56.333
f 49/187/63 50/188/63 24/189/63

vt 156.047 53.9401
vn 0.627191 0.0102646 -0.778798
vt 170.041 -8.13287
vt 230.194 3.37723
f 49/190/64 48/191/64 50/192/64

g Mesh15 dientes1 Model

v 3.00514 2.35225 -4.4601
vt -82.486 218.46
vn -0.0726351 0.534324 0.842153
v 5.27775 1.6562 -3.73683
vt 27.124 186.055
v 5.53464 3.69727 -5
vt 34.0692 281.077
f 51/193/65 52/194/65 53/195/65

vt -314.856 204.369
vn -0.184247 -0.976897 -0.108287
v 5.29479 1.7916 -5
vt -381.511 113.97
vt -336.504 92.1383
f 51/196/66 54/197/66 52/198/66

vt -26.183 16.8147
vn -0.157159 0.0284223 -0.987164
vt -147.425 69.7895
vt -136.307 -5.26684
f 51/199/67 53/200/67 54/201/67

vt 393.701 14.7644
vn 0.984037 -0.177964 7.2716e-15
vt 393.701 90.6399
vt 343.97 9.37334
f 54/202/68 53/203/68 52/204/68

g Mesh16 dientes1 Model

vt -358.561 -90.4512
vn -0.306105 -0.938048 0.162377
v 1.42373 3.19321 -3.88545
vt -368.074 -6.26501
v 1.64508 2.87638 -5.11618
vt -408.156 -37.9815
f 51/205/69 55/206/69 56/207/69

v 2.56611 4.06128 -4.85151
vt 105.65 211.028
vn 0.344016 0.328443 0.879647
vt 40.6922 174.952
vt 117.869 140.002
f 57/208/70 55/209/70 51/210/70

vt -320.877 -86.2822
vn -0.588366 0.733264 -0.340808
vt -311.348 -150.182
vt -263.175 -133.096
f 57/211/71 56/212/71 55/213/71

vt 169.408 63.6941
vn 0.289444 -0.110907 -0.950748
vt 238.558 84.4529
vt 194.154 131.382
f 51/214/72 56/215/72 57/216/72

g Mesh17 dientes1 Model

v 0.796982 7.00374 -4.98177
vt 379.053 -114.046
vn 0.164592 0.964559 -0.206242
v 0.824957 7.14767 -4.27659
vt 358.908 -94.0761
v 1.9719 6.71721 -4.97458
vt 338.791 -153.804
f 58/217/73 59/218/73 60/219/73

vt -392.983 171.314
vn -0.963139 0.269004 5.77675e-15
v 0.585789 5.91726 -4.84246
vt -387.498 127.393
vt -365.22 177.132
f 58/220/74 61/221/74 59/222/74

vt 85.2964 246.112
vn -0.0165858 -0.122603 -0.992317
vt 150.802 214.378
vt 140.727 257.478
f 60/223/75 61/224/75 58/225/75

vt 37.8183 -5.188
vn 0.241565 -0.460338 0.854245
vt -22.2659 13.8387
vt -25.8035 -40.5467
f 60/226/76 59/227/76 61/228/76

g Mesh18 dientes1 Model

vt 97.0328 341.772
vn 0.00747839 -0.408062 -0.912923
v 3.76138 6.82108 -4.99995
vt 12.596 346.251
v 2.79804 5.29847 -4.33071
vt 57.7982 280.591
f 60/229/77 62/230/77 63/231/77

vt -316.037 -222.363
vn -0.0406828 0.998573 -0.0346004
vt -266.354 -290.783
v 2.75481 6.77113 -4.74092
vt -280.231 -255.263
f 62/232/78 60/233/78 64/234/78

vt -146.312 224.744
vn -0.208357 0.254282 0.944419
vt -152.413 284.655
vt -190.484 282.461
f 63/235/79 64/236/79 60/237/79

vt 21.1306 298.267
vn 0.160607 0.271134 0.949048
vt 19.9192 238.059
vt 69.7129 300.309
f 64/238/80 63/239/80 62/240/80

g Mesh19 dientes1 Model

v 4.35873 4.84762 -4.50131
vt -132.818 154.917
vn -0.343227 0.0870262 0.935212
v 5.04595 6.32719 -4.27659
vt -99.5693 213.379
vt -166.527 232.894
f 65/241/81 66/242/81 62/243/81

vt 360.009 158.87
vn 0.825325 -0.515982 -0.229349
v 4.93709 6.38723 -4.97458
vt 371.996 226.86
vt 344.065 224.208
f 65/244/82 67/245/82 66/246/82

vt -17.7262 300.818
vn -0.054029 -0.266641 -0.96228
vt -73.0184 283.097
vt -44.5345 220.208
f 62/247/83 67/248/83 65/249/83

vt 395.341 45.1656
vn 0.248265 0.968297 0.0276499
vt 391.203 103.081
vt 368.454 37.1511
f 67/250/84 62/251/84 66/252/84

g Mesh20 dientes1 Model

v 0.37889 3.89097 -3.35497
vt 45.3861 212.18
vn 0.457661 0.370078 0.808448
vt 97.9149 182.805
v 1.07229 5.64272 -4.72087
vt 102.659 285.929
f 68/253/85 55/254/85 69/255/85

vt -369.516 41.4446
vn -0.34918 -0.912691 0.212291
v -0.0419866 3.85261 -4.51459
vt -419.217 38.1418
vt -365.838 -18.6277
f 68/256/86 70/257/86 55/258/86

vt -368.185 52.3546
vn -0.682903 0.649347 0.334652
vt -405.578 137.916
vt -417.96 50.4808
f 68/259/87 69/260/87 70/261/87

vt 272.244 171.871
vn 0.192915 -0.280877 -0.940155
vt 223.12 245.254
vt 199.159 144.84
f 70/262/88 69/263/88 55/264/88

